<?xml version="1.0" encoding="UTF-8"?>
<!DOCTYPE svg PUBLIC "-//W3C//DTD SVG 1.1//EN" "http://www.w3.org/Graphics/SVG/1.1/DTD/svg11.dtd">
<!-- Creator: CorelDRAW 2017 -->
<svg xmlns="http://www.w3.org/2000/svg" xml:space="preserve" width="7.87402in" height="7.87402in" version="1.1" style="shape-rendering:geometricPrecision; text-rendering:geometricPrecision; image-rendering:optimizeQuality; fill-rule:evenodd; clip-rule:evenodd"
viewBox="0 0 7874 7874"
 xmlns:xlink="http://www.w3.org/1999/xlink">
 <defs>
  <style type="text/css">
   <![CDATA[
    .str0 {stroke:#2B2A29;stroke-width:3}
    .fil0 {fill:none}
    .fil4 {fill:#2B2A29}
    .fil2 {fill:#FFED00}
    .fil3 {fill:#E31E24}
    .fil1 {fill:#009846}
   ]]>
  </style>
 </defs>
 <g id="Layer_x0020_1">
  <metadata id="CorelCorpID_0Corel-Layer"/>
  <rect class="fil0" width="7874" height="7874"/>
  <g id="_883086800">
   <path class="fil1 str0" d="M1791 2624c0,0 59,95 -70,99 -128,4 -363,-33 -411,-7 -48,26 -4,-95 -121,-59 -117,37 -191,-11 -253,-4 -62,7 -29,-172 -99,-176 -70,-4 -26,-81 -95,-88 -70,-7 -40,-238 73,-301 114,-62 271,-183 356,-172 84,11 95,-70 275,-44 180,26 26,-110 238,-110 213,0 117,84 172,106 55,22 550,51 634,-15 84,-66 609,-70 612,-4 4,66 385,15 176,348 -209,334 -279,301 -381,271 -103,-29 -249,-22 -253,26 -4,48 -524,7 -502,92 22,84 -352,37 -352,37z"/>
   <path class="fil2 str0" d="M6542 3258c0,0 543,44 609,-521 66,-565 -51,-682 -183,-880 -132,-198 -345,-323 -499,-315 -154,7 -73,-154 -220,-66 -147,88 -850,147 -953,125 -103,-22 -367,7 -381,139 -15,132 -308,88 -374,169 -66,81 -88,220 -198,220 -110,0 -271,0 -352,95 -81,95 -242,308 -367,308 -125,0 -29,125 -308,66 -279,-59 -515,-196 -701,-87 -186,109 -455,-72 -519,118 -63,189 -141,-121 -451,93 -309,214 -258,361 -155,368 103,7 220,59 323,139 103,81 205,125 213,213 7,88 29,161 271,176 242,15 1114,44 1114,-154 0,-198 631,-44 916,-95 286,-51 499,-81 638,88 139,169 975,286 1283,81 308,-205 293,-279 293,-279z"/>
   <path class="fil3 str0" d="M5691 4559c0,0 -455,-37 -524,15 -70,51 -235,18 -268,81 -33,62 -224,40 -257,110 -33,70 -253,0 -579,-7 -326,-7 -477,-128 -828,-147 -352,-18 -708,44 -796,-18 -88,-62 -249,-172 -356,-183 -106,-11 -414,33 -598,-99 -183,-132 -359,-154 -389,-235 -29,-81 -59,-213 15,-359 73,-147 264,-352 521,-330 257,22 369,112 489,199 120,87 1217,29 1256,-62 39,-91 4,-217 596,-151 592,66 680,-213 991,84 312,297 692,123 854,188 162,65 154,534 66,615 -88,81 44,403 -194,301z"/>
   <path class="fil4 str0" d="M4727 6253c0,0 -1569,249 -1980,147 -411,-103 -528,88 -1202,-147 -675,-235 -748,-220 15,-484 763,-264 953,-543 1173,-543 220,0 3,-706 750,-583 747,123 875,256 1160,121 285,-135 642,1312 84,1488z"/>
  </g>
 </g>
</svg>
