<?xml version="1.0" encoding="UTF-8"?>
<!DOCTYPE svg PUBLIC "-//W3C//DTD SVG 1.1//EN" "http://www.w3.org/Graphics/SVG/1.1/DTD/svg11.dtd">
<!-- Creator: CorelDRAW 2017 -->
<svg xmlns="http://www.w3.org/2000/svg" xml:space="preserve" width="8.66142in" height="2.55906in" version="1.1" style="shape-rendering:geometricPrecision; text-rendering:geometricPrecision; image-rendering:optimizeQuality; fill-rule:evenodd; clip-rule:evenodd"
viewBox="0 0 8661 2559"
 xmlns:xlink="http://www.w3.org/1999/xlink">
 <defs>
  <style type="text/css">
   <![CDATA[
    .str1 {stroke:#FEFEFE;stroke-width:19.685}
    .str0 {stroke:#2B2A29;stroke-width:6.94488}
    .fil1 {fill:#2B2A29}
    .fil2 {fill:#FFED00}
    .fil3 {fill:#E31E24}
    .fil0 {fill:#009846}
    .fil4 {fill:#FEFEFE;fill-rule:nonzero}
   ]]>
  </style>
 </defs>
 <g id="Layer_x0020_1">
  <metadata id="CorelCorpID_0Corel-Layer"/>
  <g id="_885221104">
   <path class="fil0" d="M8468 597l-6374 0c-90,0 -164,74 -164,164l0 1504c0,90 74,164 164,164l6374 0c90,0 164,-74 164,-164l0 -1504c0,-90 -74,-164 -164,-164z"/>
   <path class="fil1 str0" d="M2423 49l5804 0c90,0 164,74 164,164l0 1361c0,90 -74,164 -164,164l-5804 0c-90,0 -164,-74 -164,-164l0 -1361c0,-90 74,-164 164,-164z"/>
   <path class="fil0 str0" d="M543 714c0,0 28,45 -33,47 -61,2 -171,-16 -194,-3 -23,12 -2,-45 -57,-28 -55,17 -90,-5 -120,-2 -29,3 -14,-81 -47,-83 -33,-2 -12,-38 -45,-42 -33,-3 -19,-113 35,-142 54,-29 128,-87 168,-81 40,5 45,-33 130,-21 85,12 12,-52 113,-52 100,0 55,40 81,50 26,10 260,24 300,-7 40,-31 288,-33 289,-2 2,31 182,7 83,165 -99,158 -132,142 -180,128 -48,-14 -118,-10 -120,12 -2,23 -248,3 -237,43 10,40 -166,17 -166,17z"/>
   <path class="fil2 str0" d="M2788 1014c0,0 256,21 288,-246 31,-267 -24,-322 -87,-416 -62,-94 -163,-152 -236,-149 -73,3 -35,-73 -104,-31 -69,42 -402,69 -450,59 -48,-10 -173,3 -180,66 -7,62 -146,42 -177,80 -31,38 -42,104 -94,104 -52,0 -128,0 -166,45 -38,45 -114,145 -173,145 -59,0 -14,59 -146,31 -132,-28 -243,-93 -331,-41 -88,52 -215,-34 -245,56 -30,90 -67,-57 -213,44 -146,101 -122,170 -73,174 49,3 104,28 152,66 49,38 97,59 100,100 3,42 14,76 128,83 114,7 527,21 527,-73 0,-94 298,-21 433,-45 135,-24 236,-38 301,42 66,80 461,135 606,38 146,-97 139,-132 139,-132z"/>
   <path class="fil3 str0" d="M2386 1628c0,0 -215,-17 -248,7 -33,24 -111,9 -126,38 -16,29 -106,19 -121,52 -16,33 -120,0 -274,-3 -154,-3 -225,-61 -391,-69 -166,-9 -334,21 -376,-9 -42,-29 -118,-81 -168,-87 -50,-5 -196,16 -282,-47 -87,-62 -170,-73 -184,-111 -14,-38 -28,-100 7,-170 35,-69 125,-166 246,-156 121,10 174,53 231,94 57,41 575,14 594,-29 18,-43 2,-103 282,-72 280,31 321,-101 468,40 147,140 327,58 403,89 76,31 73,252 31,290 -42,38 21,191 -92,142z"/>
   <path class="fil1 str0" d="M1930 2429c0,0 -741,118 -935,69 -194,-48 -249,42 -568,-69 -319,-111 -353,-104 7,-229 360,-125 450,-256 554,-256 104,0 1,-333 354,-275 353,58 413,121 548,57 135,-64 303,620 40,703z"/>
   <path class="fil4 str1" d="M3509 1382c193,-294 401,-607 590,-914 5,-10 11,-18 11,-26 0,-7 -10,-11 -23,-11l-417 0c-56,0 -122,1 -252,-4 -34,-1 -42,-10 -55,-10 -8,0 -14,7 -16,26 -7,41 -27,166 -27,197 0,16 1,23 11,23 8,0 14,-5 16,-25 4,-31 29,-82 74,-107 44,-25 127,-29 197,-29l268 0c-183,289 -386,598 -579,899 -16,25 -21,31 -21,41 0,10 8,14 23,14 276,0 506,7 735,7 25,0 34,-11 41,-36 10,-34 27,-123 27,-167 0,-33 -3,-42 -14,-42 -8,0 -11,8 -14,22 -4,19 -12,44 -25,66 -22,41 -75,75 -215,75l-337 0zm865 -259c0,112 0,205 -5,253 -4,34 -11,51 -36,56 -11,3 -25,4 -42,4 -15,0 -19,7 -19,12 0,8 8,12 23,12 48,0 130,-4 157,-4 33,0 115,4 194,4 14,0 23,-4 23,-12 0,-5 -5,-12 -19,-12 -18,0 -45,-1 -62,-4 -36,-5 -44,-23 -48,-55 -5,-49 -5,-142 -5,-254l0 -205c0,-176 0,-209 3,-246 3,-41 12,-57 45,-63 14,-3 23,-4 36,-4 12,0 19,-3 19,-14 0,-7 -10,-10 -25,-10 -47,0 -125,3 -155,3 -34,0 -116,-3 -161,-3 -19,0 -29,3 -29,10 0,11 7,14 19,14 15,0 30,1 44,5 26,8 38,22 41,62 1,37 1,70 1,246l0 205zm483 222c-5,38 -16,85 -49,89 -19,3 -27,3 -37,3 -12,0 -19,5 -19,11 0,11 10,14 22,14 38,0 96,-4 119,-4 22,0 77,4 127,4 18,0 29,-3 29,-14 0,-5 -8,-11 -19,-11 -11,0 -22,-1 -42,-5 -21,-4 -37,-12 -37,-34 0,-19 1,-34 4,-55l57 -454 4 0c40,81 111,227 120,249 14,33 109,211 138,264 19,36 33,59 48,59 14,0 21,-11 48,-66l259 -520 4 0 67 504c4,33 1,47 -5,49 -8,3 -14,7 -14,12 0,7 7,12 36,14 48,3 219,8 249,8 18,0 31,-4 31,-14 0,-7 -8,-11 -19,-11 -15,0 -34,-1 -68,-11 -37,-11 -48,-42 -59,-115l-109 -718c-4,-25 -18,-37 -27,-37 -11,0 -22,10 -31,29l-323 657 -323 -649c-16,-31 -25,-37 -37,-37 -10,0 -21,11 -23,30l-119 759zm1535 -521c0,-208 0,-246 3,-290 3,-48 14,-71 51,-78 16,-3 38,-4 53,-4 16,0 25,-3 25,-12 0,-10 -10,-12 -29,-12 -53,0 -153,4 -186,4 -37,0 -123,-4 -187,-4 -21,0 -30,3 -30,12 0,10 8,12 23,12 18,0 34,1 45,4 45,10 56,31 59,78 3,44 3,82 3,290l0 241c0,126 0,234 -7,291 -5,40 -12,70 -40,75 -12,3 -29,5 -49,5 -16,0 -22,4 -22,11 0,10 10,14 27,14 27,0 63,-3 94,-3 33,-1 63,-1 78,-1 56,0 105,1 167,4 62,1 133,4 231,4 71,0 78,-7 86,-37 11,-40 21,-142 21,-157 0,-16 -1,-23 -11,-23 -11,0 -14,8 -15,21 -3,26 -19,64 -36,82 -34,37 -88,38 -160,38 -107,0 -142,-10 -166,-30 -29,-25 -29,-119 -29,-294l0 -241zm657 241c0,133 0,241 -7,298 -4,40 -12,63 -40,68 -12,3 -29,5 -49,5 -16,0 -22,4 -22,11 0,10 10,14 27,14 55,0 141,-4 172,-4 37,0 123,4 213,4 15,0 26,-4 26,-14 0,-7 -7,-11 -22,-11 -21,0 -51,-3 -70,-5 -41,-5 -51,-30 -55,-67 -5,-59 -5,-167 -5,-300l0 -241c0,-208 0,-246 3,-290 3,-48 14,-71 51,-78 16,-3 27,-4 41,-4 14,0 22,-3 22,-14 0,-8 -11,-11 -29,-11 -52,0 -133,4 -167,4 -40,0 -126,-4 -178,-4 -22,0 -33,3 -33,11 0,11 8,14 22,14 16,0 34,1 49,5 30,7 44,30 47,77 3,44 3,82 3,290l0 241zm618 0c0,133 0,241 -7,298 -4,40 -12,63 -40,68 -12,3 -29,5 -49,5 -16,0 -22,4 -22,11 0,10 10,14 27,14 55,0 141,-4 172,-4 37,0 123,4 213,4 15,0 26,-4 26,-14 0,-7 -7,-11 -22,-11 -21,0 -51,-3 -70,-5 -41,-5 -51,-30 -55,-67 -5,-59 -5,-167 -5,-300l0 -241c0,-208 0,-246 3,-290 3,-48 14,-71 51,-78 16,-3 27,-4 41,-4 14,0 22,-3 22,-14 0,-8 -11,-11 -29,-11 -52,0 -133,4 -167,4 -40,0 -126,-4 -178,-4 -22,0 -33,3 -33,11 0,11 8,14 22,14 16,0 34,1 49,5 30,7 44,30 47,77 3,44 3,82 3,290l0 241z"/>
   <path class="fil4" d="M2226 2191l0 -54 89 -181 -82 0 0 -56 157 0 0 51 -89 180 93 0 0 59 -168 0zm201 -240l0 -53 61 0 0 53 -61 0zm0 240l0 -218 61 0 0 218 -61 0zm102 0l0 -218 54 0 0 26c7,-10 14,-18 22,-23 8,-5 18,-7 28,-7 10,0 19,3 26,8 7,5 13,13 17,22 7,-10 14,-18 22,-23 8,-5 18,-7 28,-7 16,0 28,6 36,17 7,11 11,29 11,54l0 152 -58 0 0 -138c0,-16 -1,-25 -3,-29 -2,-4 -6,-6 -11,-6 -7,0 -12,3 -15,10 -4,7 -6,16 -6,28l0 136 -57 0 0 -138c0,-16 -1,-25 -3,-29 -2,-4 -6,-6 -12,-6 -6,0 -12,3 -15,10 -4,7 -6,16 -6,28l0 136 -58 0zm363 -172c-7,0 -12,3 -15,10 -3,7 -4,20 -4,38 0,36 2,58 5,67 3,8 9,13 17,13 7,0 12,-3 14,-10 3,-6 4,-21 4,-44l0 -6c0,-31 -1,-50 -4,-57 -3,-7 -8,-11 -16,-11zm-80 -119l61 0 0 92c6,-9 12,-15 19,-19 7,-4 15,-6 24,-6 22,0 36,8 45,23 8,16 12,48 12,97 0,23 -1,40 -2,52 -1,12 -3,21 -6,27 -5,10 -11,17 -19,22 -8,5 -18,8 -29,8 -10,0 -20,-3 -28,-8 -8,-5 -15,-13 -21,-22l0 24 -57 0 0 -290zm296 185c-16,4 -27,10 -34,16 -7,7 -11,15 -11,25 0,7 2,12 5,17 4,4 8,6 14,6 9,0 15,-3 19,-9 4,-6 6,-16 6,-30l0 -24zm8 105l-4 -20c-8,8 -16,14 -25,18 -9,4 -19,6 -30,6 -17,0 -31,-6 -41,-17 -10,-11 -15,-26 -15,-45 0,-16 4,-30 13,-41 9,-11 22,-20 42,-28 5,-2 11,-4 19,-7 23,-8 34,-18 34,-28 0,-6 -2,-11 -5,-15 -3,-3 -8,-5 -14,-5 -7,0 -13,2 -17,7 -4,5 -5,11 -5,21l0 2 -61 0c0,-25 7,-43 21,-55 14,-12 35,-18 62,-18 13,0 24,1 34,3 10,2 18,6 25,10 9,6 15,13 18,21 3,8 5,23 5,45l0 7 0 78c0,17 1,30 2,39 1,9 3,16 6,22l-64 0zm176 -172c-7,0 -12,3 -15,10 -3,7 -4,20 -4,38 0,36 2,58 5,67 3,8 9,13 17,13 7,0 12,-3 14,-10 3,-6 4,-21 4,-44l0 -6c0,-31 -1,-50 -4,-57 -3,-7 -8,-11 -16,-11zm-80 -119l61 0 0 92c6,-9 12,-15 19,-19 7,-4 15,-6 24,-6 21,0 36,8 45,23 8,16 12,48 12,97 0,23 -1,40 -2,52 -1,12 -3,21 -6,27 -5,10 -11,17 -19,22 -8,5 -18,8 -29,8 -10,0 -20,-3 -28,-8 -8,-5 -15,-13 -21,-22l0 24 -57 0 0 -290zm223 290l-42 -218 59 0 17 152 23 -152 51 0 23 152 17 -152 59 0 -42 218 -63 0 -19 -120 -19 120 -63 0zm327 -76l57 0 0 5c0,25 -7,45 -20,57 -13,13 -33,19 -60,19 -13,0 -25,-2 -36,-6 -11,-4 -19,-9 -25,-16 -7,-8 -12,-18 -15,-31 -3,-13 -4,-33 -4,-61 0,-31 1,-52 4,-65 3,-12 8,-22 15,-30 7,-7 16,-13 26,-17 11,-4 23,-6 37,-6 14,0 27,2 37,6 10,4 19,10 25,18 6,7 9,15 12,24 2,9 4,25 4,48l0 26 -99 0c0,1 0,1 0,2 -1,9 -1,16 -1,19 0,15 2,26 5,32 3,6 9,9 17,9 7,0 12,-2 16,-7 4,-5 5,-12 5,-21 0,-2 0,-5 -1,-9 0,-1 0,-1 0,-2zm-40 -62l41 0c0,0 0,-1 0,-1 1,-5 1,-9 1,-12 0,-11 -2,-19 -5,-24 -3,-5 -9,-8 -16,-8 -7,0 -13,2 -16,7 -3,5 -5,13 -5,25 0,3 0,6 0,7 0,2 0,3 0,5zm391 139l-149 0 0 -290 68 0 0 232 82 0 0 59zm124 -76l57 0 0 5c0,25 -7,45 -20,57 -13,13 -33,19 -60,19 -13,0 -25,-2 -36,-6 -11,-4 -19,-9 -25,-16 -7,-8 -12,-18 -15,-31 -3,-13 -4,-33 -4,-61 0,-31 1,-52 4,-65 3,-12 8,-22 15,-30 7,-7 16,-13 26,-17 11,-4 23,-6 37,-6 14,0 27,2 37,6 10,4 19,10 25,18 6,7 9,15 12,24 2,9 4,25 4,48l0 26 -99 0c0,1 0,1 0,2 -1,9 -1,16 -1,19 0,15 2,26 5,32 3,6 9,9 17,9 7,0 12,-2 16,-7 4,-5 5,-12 5,-21 0,-2 0,-5 -1,-9 0,-1 0,-1 0,-2zm-40 -62l41 0c0,0 0,-1 0,-1 1,-5 1,-9 1,-12 0,-11 -2,-19 -5,-24 -3,-5 -9,-8 -16,-8 -7,0 -13,2 -16,7 -3,5 -5,13 -5,25 0,3 0,6 0,7 0,2 0,3 0,5zm190 1l0 16c0,29 1,47 4,54 3,8 8,12 15,12 7,0 12,-3 15,-10 3,-7 4,-21 4,-44l0 -9c0,-24 -1,-39 -4,-45 -3,-6 -8,-9 -15,-9 -7,0 -11,3 -14,8 -3,5 -5,14 -5,27zm99 -80l0 195c0,20 -1,35 -3,44 -2,10 -6,18 -11,24 -7,9 -16,16 -28,20 -12,5 -26,7 -42,7 -26,0 -45,-5 -57,-16 -12,-10 -19,-26 -19,-48l60 0c0,8 1,14 4,18 3,4 8,6 14,6 8,0 13,-3 16,-7 3,-5 5,-15 5,-29l0 -26c-8,7 -16,13 -23,16 -7,3 -15,5 -22,5 -11,0 -20,-3 -28,-9 -8,-6 -15,-14 -19,-25 -2,-6 -4,-14 -5,-24 -1,-11 -2,-24 -2,-41 0,-16 0,-31 1,-43 1,-13 2,-23 3,-31 2,-12 8,-22 17,-30 9,-8 20,-12 31,-12 10,0 19,2 27,7 8,5 17,12 24,22l0 -24 56 0zm140 113c-16,4 -27,10 -34,16 -7,7 -11,15 -11,25 0,7 2,12 5,17 4,4 8,6 14,6 9,0 15,-3 19,-9 4,-6 6,-16 6,-30l0 -24zm8 105l-4 -20c-8,8 -16,14 -25,18 -9,4 -19,6 -30,6 -17,0 -31,-6 -41,-17 -10,-11 -15,-26 -15,-45 0,-16 4,-30 13,-41 8,-11 22,-20 42,-28 5,-2 11,-4 19,-7 23,-8 34,-18 34,-28 0,-6 -2,-11 -5,-15 -3,-3 -8,-5 -14,-5 -7,0 -13,2 -17,7 -4,5 -5,11 -5,21l0 2 -61 0c0,-25 7,-43 21,-55 14,-12 35,-18 62,-18 13,0 24,1 34,3 10,2 18,6 25,10 9,6 15,13 18,21 3,8 5,23 5,45l0 7 0 78c0,17 1,30 2,39 1,9 3,16 6,22l-64 0zm157 0l-61 0 0 -290 61 0 0 290zm148 0l0 -290 68 0 0 290 -68 0zm112 0l0 -218 57 0 0 26c7,-10 14,-18 23,-23 9,-5 19,-7 30,-7 17,0 29,6 37,17 8,11 12,29 12,54l0 152 -61 0 0 -135c0,-17 -1,-28 -3,-33 -2,-4 -6,-6 -12,-6 -7,0 -12,3 -16,10 -4,7 -6,16 -6,28l0 136 -61 0zm210 0l0 -172 -25 0 0 -46 25 0c0,-1 0,-3 0,-6 0,-2 0,-4 0,-5 0,-23 5,-39 15,-48 10,-9 26,-14 50,-14 4,0 7,0 11,0 4,0 8,1 12,1l0 44c-1,0 -2,0 -3,0 -1,0 -2,0 -4,0 -7,0 -12,2 -15,5 -3,3 -4,9 -4,16 0,2 0,3 0,4 0,1 0,2 0,3l26 0 0 46 -26 0 0 172 -61 0zm172 -109c0,31 1,50 4,58 3,8 8,12 15,12 7,0 13,-4 15,-11 3,-7 4,-27 4,-58 0,-31 -1,-51 -4,-58 -3,-7 -8,-11 -15,-11 -7,0 -13,4 -15,12 -3,8 -4,27 -4,58zm-62 0c0,-42 6,-72 18,-89 12,-17 33,-26 63,-26 30,0 51,8 63,25 12,17 18,47 18,90 0,42 -6,72 -18,89 -12,17 -33,26 -63,26 -30,0 -51,-8 -63,-25 -12,-17 -18,-47 -18,-89zm197 109l0 -218 56 0 0 31c7,-11 14,-19 22,-25 8,-6 17,-9 27,-10l0 69c-3,-1 -7,-1 -10,-2 -3,0 -6,-1 -8,-1 -10,0 -17,3 -20,10 -4,7 -6,20 -6,41l0 105 -61 0zm135 0l0 -218 54 0 0 26c7,-10 14,-18 22,-23 8,-5 18,-7 28,-7 10,0 19,3 26,8 7,5 13,13 17,22 7,-10 14,-18 22,-23 8,-5 18,-7 28,-7 16,0 28,6 36,17 7,11 11,29 11,54l0 152 -58 0 0 -138c0,-16 -1,-25 -3,-29 -2,-4 -6,-6 -11,-6 -7,0 -12,3 -15,10 -4,7 -6,16 -6,28l0 136 -57 0 0 -138c0,-16 -1,-25 -3,-29 -2,-4 -6,-6 -12,-6 -6,0 -12,3 -15,10 -4,7 -6,16 -6,28l0 136 -58 0zm380 -105c-16,4 -27,10 -34,16 -7,7 -11,15 -11,25 0,7 2,12 5,17 4,4 8,6 14,6 9,0 15,-3 19,-9 4,-6 6,-16 6,-30l0 -24zm8 105l-4 -20c-8,8 -16,14 -25,18 -9,4 -19,6 -30,6 -17,0 -31,-6 -41,-17 -10,-11 -15,-26 -15,-45 0,-16 4,-30 13,-41 8,-11 22,-20 42,-28 5,-2 11,-4 19,-7 23,-8 34,-18 34,-28 0,-6 -2,-11 -5,-15 -3,-3 -8,-5 -14,-5 -7,0 -13,2 -17,7 -4,5 -5,11 -5,21l0 2 -61 0c0,-25 7,-43 21,-55 14,-12 35,-18 62,-18 13,0 24,1 34,3 10,2 18,6 25,10 9,6 15,13 18,21 3,8 5,23 5,45l0 7 0 78c0,17 1,30 2,39 1,9 3,16 6,22l-64 0zm194 -1c-7,1 -14,2 -19,3 -6,1 -10,1 -14,1 -12,0 -22,-2 -31,-6 -9,-4 -15,-10 -19,-17 -3,-5 -4,-11 -6,-19 -1,-8 -2,-19 -2,-35l0 -27 0 -73 -24 0 0 -45 24 0 0 -60 61 0 0 60 29 0 0 45 -29 0 0 89c0,19 1,31 4,35 3,4 8,7 16,7 1,0 4,0 7,-1 1,0 2,0 2,0l0 43zm29 -239l0 -53 61 0 0 53 -61 0zm0 240l0 -218 61 0 0 218 -61 0zm158 -109c0,31 1,50 4,58 3,8 8,12 15,12 7,0 13,-4 15,-11 3,-7 4,-27 4,-58 0,-31 -1,-51 -4,-58 -3,-7 -8,-11 -15,-11 -7,0 -13,4 -15,12 -3,8 -4,27 -4,58zm-62 0c0,-42 6,-72 18,-89 12,-17 33,-26 63,-26 30,0 51,8 63,25 12,17 18,47 18,90 0,42 -6,72 -18,89 -12,17 -33,26 -63,26 -30,0 -51,-8 -63,-25 -12,-17 -18,-47 -18,-89zm198 109l0 -218 57 0 0 26c7,-10 14,-18 23,-23 9,-5 19,-7 30,-7 17,0 29,6 37,17 8,11 12,29 12,54l0 152 -61 0 0 -135c0,-17 -1,-28 -3,-33 -2,-4 -6,-6 -12,-6 -7,0 -12,3 -16,10 -4,7 -6,16 -6,28l0 136 -61 0zm306 0l0 -290 68 0 0 290 -68 0zm112 0l0 -218 57 0 0 26c7,-10 14,-18 23,-23 9,-5 19,-7 30,-7 17,0 29,6 37,17 8,11 12,29 12,54l0 152 -61 0 0 -135c0,-17 -1,-28 -3,-33 -2,-4 -6,-6 -12,-6 -7,0 -12,3 -16,10 -4,7 -6,16 -6,28l0 136 -61 0zm186 -69l54 0c1,11 3,20 7,25 4,5 9,8 17,8 6,0 11,-2 15,-5 4,-4 6,-8 6,-14 0,-5 -1,-9 -4,-12 -3,-3 -9,-7 -18,-11 -2,-1 -5,-3 -9,-5 -22,-10 -37,-20 -46,-29 -6,-6 -11,-13 -14,-21 -3,-8 -5,-16 -5,-25 0,-20 7,-36 20,-48 14,-12 32,-18 55,-18 24,0 42,6 55,17 13,11 19,28 19,49l0 4 -53 0c0,-11 -2,-19 -5,-23 -3,-5 -8,-7 -15,-7 -6,0 -11,2 -15,5 -4,3 -5,8 -5,13 0,10 9,18 27,26 3,1 4,2 6,3 25,11 42,22 50,33 8,11 13,24 13,41 0,22 -7,39 -20,51 -14,12 -33,18 -58,18 -24,0 -42,-6 -56,-18 -13,-12 -20,-29 -20,-51l0 -5zm281 68c-7,1 -14,2 -19,3 -6,1 -10,1 -14,1 -12,0 -22,-2 -31,-6 -8,-4 -15,-10 -19,-17 -3,-5 -4,-11 -6,-19 -1,-8 -2,-19 -2,-35l0 -27 0 -73 -24 0 0 -45 24 0 0 -60 61 0 0 60 29 0 0 45 -29 0 0 89c0,19 1,31 4,35 3,4 8,7 16,7 1,0 4,0 7,-1 1,0 2,0 2,0l0 43zm29 -239l0 -53 61 0 0 53 -61 0zm0 240l0 -218 61 0 0 218 -61 0zm200 -1c-7,1 -14,2 -19,3 -6,1 -10,1 -14,1 -12,0 -22,-2 -31,-6 -8,-4 -15,-10 -19,-17 -3,-5 -4,-11 -6,-19 -1,-8 -2,-19 -2,-35l0 -27 0 -73 -24 0 0 -45 24 0 0 -60 61 0 0 60 29 0 0 45 -29 0 0 89c0,19 1,31 4,35 3,4 8,7 16,7 1,0 4,0 7,-1 1,0 2,0 2,0l0 43zm187 -218l0 218 -57 0 0 -26c-7,10 -14,18 -23,23 -8,5 -18,7 -30,7 -17,0 -29,-6 -37,-17 -8,-11 -12,-29 -12,-53l0 -152 61 0 0 135c0,18 1,28 3,33 2,4 6,6 12,6 7,0 12,-3 16,-10 4,-7 6,-16 6,-28l0 -136 61 0zm140 218c-7,1 -14,2 -19,3 -6,1 -10,1 -14,1 -12,0 -22,-2 -31,-6 -9,-4 -15,-10 -19,-17 -3,-5 -4,-11 -6,-19 -1,-8 -2,-19 -2,-35l0 -27 0 -73 -24 0 0 -45 24 0 0 -60 61 0 0 60 29 0 0 45 -29 0 0 89c0,19 1,31 4,35 3,4 8,7 16,7 1,0 4,0 7,-1 1,0 2,0 2,0l0 43zm127 -76l57 0 0 5c0,25 -7,45 -20,57 -13,13 -33,19 -60,19 -13,0 -25,-2 -36,-6 -11,-4 -19,-9 -25,-16 -7,-8 -12,-18 -15,-31 -3,-13 -4,-33 -4,-61 0,-31 1,-52 4,-65 3,-12 8,-22 15,-30 7,-7 16,-13 26,-17 11,-4 23,-6 37,-6 14,0 27,2 37,6 10,4 19,10 25,18 6,7 9,15 12,24 2,9 4,25 4,48l0 26 -99 0c0,1 0,1 0,2 -1,9 -1,16 -1,19 0,15 2,26 5,32 3,6 9,9 17,9 7,0 12,-2 16,-7 4,-5 5,-12 5,-21 0,-2 0,-5 -1,-9 0,-1 0,-1 0,-2zm-40 -62l41 0c0,0 0,-1 0,-1 1,-5 1,-9 1,-12 0,-11 -2,-19 -5,-24 -3,-5 -9,-8 -16,-8 -7,0 -13,2 -16,7 -3,5 -5,13 -5,25 0,3 0,6 0,7 0,2 0,3 0,5z"/>
  </g>
 </g>
</svg>
